<?xml version="1.0" encoding="UTF-8" standalone="no"?>
<!-- Created with Inkscape (http://www.inkscape.org/) -->

<svg
   xmlns:dc="http://purl.org/dc/elements/1.1/"
   xmlns:cc="http://creativecommons.org/ns#"
   xmlns:rdf="http://www.w3.org/1999/02/22-rdf-syntax-ns#"
   xmlns:svg="http://www.w3.org/2000/svg"
   xmlns="http://www.w3.org/2000/svg"
   xmlns:sodipodi="http://sodipodi.sourceforge.net/DTD/sodipodi-0.dtd"
   xmlns:inkscape="http://www.inkscape.org/namespaces/inkscape"
   width="1366"
   height="768"
   viewBox="0 0 361.42085 203.19999"
   version="1.1"
   id="svg5"
   inkscape:version="0.92.5 (2060ec1f9f, 2020-04-08)"
   sodipodi:docname="intro.svg"
   inkscape:export-filename="/home/ddd/Desktop/Plasma_Oxygen/Other_files/intro.png"
   inkscape:export-xdpi="96"
   inkscape:export-ydpi="96">
  <metadata
     id="metadata11">
    <rdf:RDF>
      <cc:Work
         rdf:about="">
        <dc:format>image/svg+xml</dc:format>
        <dc:type
           rdf:resource="http://purl.org/dc/dcmitype/StillImage" />
        <dc:title></dc:title>
      </cc:Work>
    </rdf:RDF>
  </metadata>
  <sodipodi:namedview
     id="namedview7"
     pagecolor="#ffffff"
     bordercolor="#666666"
     borderopacity="1.0"
     inkscape:pageshadow="2"
     inkscape:pageopacity="0.0"
     inkscape:pagecheckerboard="0"
     inkscape:document-units="mm"
     showgrid="false"
     width="1366mm"
     inkscape:zoom="0.63999997"
     inkscape:cx="734.53101"
     inkscape:cy="521.89836"
     inkscape:window-width="1680"
     inkscape:window-height="986"
     inkscape:window-x="0"
     inkscape:window-y="36"
     inkscape:window-maximized="1"
     inkscape:current-layer="layer1"
     units="px" />
  <defs
     id="defs2">
    <pattern
       id="EMFhbasepattern"
       patternUnits="userSpaceOnUse"
       width="6"
       height="6"
       x="0"
       y="0" />
    <pattern
       id="EMFhbasepattern-3"
       patternUnits="userSpaceOnUse"
       width="6"
       height="6"
       x="0"
       y="0" />
    <filter
       inkscape:collect="always"
       style="color-interpolation-filters:sRGB"
       id="filter1370"
       x="-0.13122694"
       width="1.2624539"
       y="-0.23340625"
       height="1.4668125">
      <feGaussianBlur
         inkscape:collect="always"
         stdDeviation="19.761729"
         id="feGaussianBlur1372" />
    </filter>
  </defs>
  <g
     inkscape:label="Слой 1"
     inkscape:groupmode="layer"
     id="layer1"
     transform="translate(0,-564.80004)">
    <rect
       style="opacity:0.98500001;fill:#000000;fill-opacity:0.2827325;stroke:#000000;stroke-width:0;stroke-linecap:square;paint-order:markers fill stroke;filter:url(#filter1370)"
       id="rect1333"
       width="361.42084"
       height="203.2"
       x="4.4652211e-07"
       y="564.79999"
       transform="matrix(0.78729708,0,0,0.6758489,38.987472,215.74458)" />
    <path
       style="fill:#f8ca00;fill-opacity:1;stroke:#b86a00;stroke-width:0.47589338;stroke-miterlimit:4;stroke-dasharray:none;stroke-opacity:1"
       d="m 219.67423,735.29353 -0.0404,-1.86325 -5.28242,-0.056 -5.28242,-0.056 v -6.59879 -6.59878 h 0.90956 0.90955 v 5.5366 5.5366 h 1.39932 1.39931 v -5.5366 -5.5366 h 0.90957 0.90955 v 5.5366 5.5366 h 1.39931 1.39932 v -5.5366 -5.5366 h 0.83725 0.83728 l 0.0373,5.58984 0.0372,5.58984 0.66466,0.0649 0.66469,0.0649 v 2.86309 2.86312 h -0.83417 -0.83411 z M 128.18846,732.472 c 0,-0.98412 0.0256,-1.0647 0.33838,-1.0647 0.58604,0 0.76074,-0.2219 0.97764,-1.24303 0.17665,-0.83152 0.57601,-4.43458 1.00106,-9.03163 l 0.0936,-1.01152 h 2.71278 2.71279 v 6.60137 6.6013 h -0.90956 -0.90956 v -5.54555 -5.54557 l -1.07897,0.0624 -1.07898,0.0624 -0.31488,3.40717 c -0.3788,4.09872 -0.55259,5.29439 -0.91588,6.3011 -0.38084,1.05531 -0.90271,1.47141 -1.84534,1.47141 h -0.78301 z m 15.99741,0.71593 c -1.10999,-0.59848 -1.8463,-2.27242 -2.21178,-5.02807 -0.0744,-0.56039 -0.11369,-0.5856 -0.91458,-0.5856 h -0.83693 v 2.87476 2.87477 h -0.90955 -0.90956 v -6.6013 -6.60137 h 0.90956 0.90955 v 2.66183 2.66183 h 0.89167 0.89167 l 0.0939,-0.89293 c 0.13445,-1.27948 0.76488,-2.9182 1.38647,-3.6039 1.01595,-1.12075 2.97404,-1.31604 4.13766,-0.4126 0.7731,0.6002 1.50592,1.94868 1.75633,3.23187 0.27721,1.42055 0.28202,4.46534 0.009,5.86301 -0.51017,2.61433 -1.70341,3.91388 -3.56964,3.88767 -0.57722,-0.009 -1.31251,-0.15652 -1.63398,-0.32988 z m 2.58804,-2.21304 c 0.77283,-0.717 1.04542,-1.97861 0.98289,-4.54895 -0.0574,-2.36004 -0.32249,-3.3883 -1.01992,-3.95632 -0.47835,-0.38981 -1.54843,-0.33631 -1.985,0.0991 -0.7895,0.78724 -1.1988,3.83338 -0.85052,6.33008 0.12268,0.87951 0.68923,2.02611 1.13745,2.30204 0.51148,0.31501 1.2567,0.21794 1.7351,-0.22585 z m 14.80094,2.23875 c -0.87961,-0.50962 -1.42926,-1.28648 -1.87875,-2.6553 -0.51937,-1.58172 -0.67638,-3.48161 -0.45069,-5.45393 0.20389,-1.78162 0.53299,-2.77724 1.23884,-3.74769 0.74176,-1.01978 1.41068,-1.33679 2.82706,-1.33967 2.09415,-0.004 3.33305,1.31579 3.86924,4.12265 0.27686,1.44928 0.19539,4.84173 -0.14492,6.03523 -0.31351,1.09952 -1.00378,2.23874 -1.68206,2.77614 -0.7469,0.59169 -2.94678,0.74459 -3.77872,0.26252 z m 2.96666,-2.37926 c 0.7465,-0.84674 0.93874,-1.66696 0.93874,-4.00546 0,-2.45954 -0.26755,-3.54893 -1.04034,-4.23611 -0.62224,-0.55332 -1.85705,-0.54752 -2.36283,0.009 -0.68453,0.75598 -1.04667,2.22239 -1.04667,4.23825 0,2.16701 0.37642,3.52187 1.16144,4.18044 0.62916,0.52784 1.80115,0.43388 2.34966,-0.18823 z m 27.73474,2.50338 c -1.67925,-0.77734 -2.52713,-2.74558 -2.63001,-6.10541 -0.10474,-3.41956 0.53087,-5.49257 2.02602,-6.60769 0.70168,-0.52335 0.97994,-0.60774 2.00422,-0.6079 1.4133,-1.9e-4 2.08324,0.31749 2.82705,1.33996 0.71338,0.9808 1.04981,2.0107 1.25676,3.8474 0.42363,3.75938 -0.56025,7.06016 -2.38673,8.00728 -0.65576,0.33978 -2.47541,0.41409 -3.09731,0.12631 z m 2.52186,-2.3272 c 0.94101,-0.7657 1.39224,-2.96918 1.13097,-5.52303 -0.23045,-2.25252 -0.90907,-3.2978 -2.14111,-3.2978 -0.97663,0 -1.57373,0.48688 -1.94119,1.58304 -0.55521,1.65622 -0.52544,4.85804 0.0575,6.18634 0.60212,1.37201 1.91403,1.84865 2.89379,1.05145 z m 4.05583,1.46144 c 0,-0.98412 0.0256,-1.0647 0.33839,-1.0647 0.58605,0 0.76073,-0.2219 0.97763,-1.24303 0.17665,-0.83152 0.57601,-4.43458 1.00109,-9.03163 l 0.0935,-1.01152 h 2.71276 2.71279 v 6.60137 6.6013 h -0.90955 -0.90956 v -5.54555 -5.54557 l -1.07897,0.0624 -1.07899,0.0624 -0.31487,3.40717 c -0.37881,4.09872 -0.5526,5.29439 -0.91588,6.3011 -0.38083,1.05531 -0.90272,1.47141 -1.84533,1.47141 h -0.78303 z m 54.65126,0.59146 c -0.11982,-0.26004 -0.21783,-0.67021 -0.21783,-0.91088 0,-0.86233 0.38809,-1.38414 1.02943,-1.38414 0.32657,0 0.66933,0.11492 0.76169,0.25559 0.24102,0.36653 0.20722,1.7837 -0.052,2.17812 -0.34172,0.52001 -1.25654,0.43686 -1.52131,-0.13869 z M 151.69697,726.742 v -6.62088 h 2.72868 2.72866 v 1.06471 1.06476 h -1.88909 -1.88906 v 1.46017 1.46022 l 1.08694,0.11343 c 1.17201,0.12234 2.00089,0.54399 2.53241,1.28855 1.15951,1.6242 0.86776,4.92115 -0.54085,6.11203 -0.57716,0.48788 -0.80193,0.53845 -2.69369,0.60517 l -2.064,0.0728 z m 3.64315,4.12903 c 0.43642,-0.34325 0.60569,-0.95551 0.53074,-1.91907 -0.0673,-0.8661 -0.6289,-1.39236 -1.6337,-1.531 l -0.861,-0.11887 v 1.94611 1.94607 h 0.77658 c 0.42711,0 0.96143,-0.14563 1.18738,-0.32344 z m 14.12818,-4.13963 v -6.61028 h 0.78703 0.78702 l -0.0592,5.11043 c -0.0326,2.81078 -0.009,5.03426 0.052,4.94119 0.0612,-0.0931 0.98661,-2.36885 2.05651,-5.05724 l 1.94527,-4.88789 1.06379,-0.0624 1.06379,-0.0624 v 6.61033 6.61026 h -0.78926 -0.78926 l 0.0693,-5.11532 c 0.038,-2.81341 0.0312,-5.05824 -0.0153,-4.9885 -0.0466,0.0699 -0.96702,2.34771 -2.04544,5.06209 l -1.96079,4.93525 -1.08273,0.0624 -1.08272,0.0624 z m 14.83276,1.05579 v -5.5366 h -1.18943 -1.18941 v -1.06476 -1.06471 h 3.28839 3.28839 v 1.06471 1.06476 h -1.18942 -1.18941 v 5.5366 5.5366 h -0.90956 -0.90955 z m 38.62114,-1.05579 v -6.61028 h 0.78701 0.78705 l -0.0593,5.11043 c -0.0326,2.81078 -0.009,5.03426 0.052,4.94119 0.0612,-0.0931 0.98658,-2.36885 2.0565,-5.05724 l 1.94525,-4.88789 1.06381,-0.0624 1.06379,-0.0624 v 6.61033 6.61026 h -0.78928 -0.78926 l 0.0693,-5.11532 c 0.038,-2.81341 0.0312,-5.05824 -0.0153,-4.9885 -0.0466,0.0699 -0.96701,2.34771 -2.04544,5.06209 l -1.96079,4.93525 -1.08272,0.0624 -1.08274,0.0624 z m 10.07508,-0.009 v -6.6013 h 0.90955 0.90956 v 2.66183 2.66183 h 1.74914 1.74915 v -2.66183 -2.66183 h 0.90956 0.90954 v 6.6013 6.60136 h -0.90954 -0.90956 v -2.87481 -2.87476 h -1.74915 -1.74914 v 2.87476 2.87481 h -0.90956 -0.90955 z m 9.51535,0 v -6.6013 h 0.90957 0.90955 v 2.55534 2.55534 h 0.55283 c 2.12004,0 3.50518,1.57191 3.50518,3.97786 0,1.46146 -0.26684,2.42571 -0.85972,3.10687 -0.68902,0.79155 -1.38891,1.00473 -3.30325,1.00607 l -1.71416,10e-4 v -6.60135 z m 3.48827,4.16034 c 0.46434,-0.36554 0.56975,-0.70407 0.56975,-1.83041 0,-1.04154 -0.32781,-1.40791 -1.43709,-1.60627 l -0.80181,-0.14365 v 1.94587 1.94581 h 0.63663 c 0.35016,0 0.81478,-0.14017 1.03252,-0.31155 z m 3.64825,-4.16034 v -6.6013 h 0.83959 0.83958 v 6.6013 6.60136 h -0.83958 -0.83959 z m 3.86118,-1.65031 c -0.0518,-2.0789 -0.12819,-4.04335 -0.16969,-4.36539 l -0.0755,-0.5856 h 1.00854 1.00851 l -0.0957,3.6733 c -0.0526,2.02036 -0.13069,3.98475 -0.17338,4.36539 -0.0749,0.66723 -0.10155,0.6921 -0.74308,0.6921 h -0.66542 z m -82.03636,-6.66822 c -0.43141,-0.32492 -0.64068,-0.65837 -0.8046,-1.2818 -0.12185,-0.46362 -0.22155,-0.93654 -0.22155,-1.05124 0,-0.11492 0.33252,-0.20853 0.73895,-0.20853 0.69201,0 0.74898,0.0396 0.89688,0.63682 0.18715,0.75449 0.75471,1.14926 1.42016,0.98779 0.55002,-0.13324 0.84524,-0.4646 1.01315,-1.13674 0.10698,-0.42843 0.2175,-0.48787 0.9044,-0.48787 0.74699,0 0.77812,0.0198 0.68539,0.47896 -0.37713,1.86048 -1.1131,2.50219 -2.86949,2.50194 -0.91025,-1.5e-4 -1.3136,-0.10053 -1.76329,-0.43933 z m -27.96299,-6.7243 c -1.16958,-0.43488 -1.18943,-0.46162 -1.18943,-1.60628 0,-0.84375 0.0427,-1.04604 0.20115,-0.95352 0.71533,0.41756 1.55356,0.63395 2.52752,0.65203 0.89349,0.0149 1.21815,-0.0674 1.60845,-0.41605 0.62656,-0.55976 0.83907,-1.40303 0.55079,-2.18566 -0.31085,-0.8439 -0.8961,-1.17388 -2.26419,-1.2766 l -1.2244,-0.0922 v -1.01265 -1.01265 l 1.26003,-0.0916 c 1.57716,-0.11491 2.02836,-0.51369 2.02836,-1.79341 0,-0.73172 -0.0573,-0.87408 -0.48975,-1.21489 -0.62373,-0.49184 -1.91423,-0.38485 -2.83461,0.23478 l -0.64852,0.43636 -0.34972,-0.88794 -0.34971,-0.88793 0.67522,-0.48144 c 2.00106,-1.42737 4.72136,-1.00914 5.46212,0.83984 0.6685,1.66859 0.18605,3.57107 -1.10467,4.35623 l -0.74876,0.45568 0.76752,0.33978 c 0.82229,0.36357 1.46334,1.16101 1.60003,1.98971 0.13954,0.84613 -0.0337,2.32304 -0.35227,3.00398 -0.16472,0.35218 -0.59813,0.86387 -0.96318,1.13743 -0.56626,0.42447 -0.89992,0.50283 -2.27291,0.53439 -0.88507,0.0198 -1.73515,-0.009 -1.88907,-0.0674 z m 60.80031,-0.90333 c 0,-1.05541 0.0125,-1.08954 0.3981,-1.08954 0.79184,0 0.99156,-0.87832 1.54939,-6.81428 0.15959,-1.69822 0.32479,-3.39915 0.3671,-3.7798 l 0.0769,-0.69204 h 2.72234 2.72233 v 6.6013 6.60137 h -0.90955 -0.90956 v -5.5366 -5.53664 h -1.09892 -1.09893 l -0.2408,2.82156 c -0.60323,7.06918 -0.98235,8.26268 -2.67679,8.42687 l -0.90162,0.0872 z m 9.23549,0 c 0,-1.05541 0.0125,-1.08954 0.39809,-1.08954 0.79185,0 0.99157,-0.87832 1.54939,-6.81428 0.1596,-1.69822 0.3248,-3.39915 0.3671,-3.7798 l 0.0769,-0.69204 h 2.72234 2.72234 v 6.6013 6.60137 h -0.90955 -0.90957 v -5.5366 -5.53664 h -1.09891 -1.09893 l -0.2408,2.82156 c -0.60324,7.06918 -0.98235,8.26268 -2.6768,8.42687 l -0.90161,0.0872 z m -85.35832,-5.77436 v -6.6013 l 1.64419,0.005 c 1.92665,0.005 2.72188,0.24022 3.37041,0.99319 0.61701,0.71617 0.86305,1.66206 0.86023,3.30693 -0.005,2.6636 -0.96009,4.00059 -3.00624,4.20638 l -1.11945,0.11244 -0.0397,2.28917 -0.0397,2.28917 h -0.83486 -0.83485 v -6.60137 z m 3.48553,-0.5223 c 0.50126,-0.39426 0.7725,-1.37239 0.65192,-2.35052 -0.12648,-1.02613 -0.62181,-1.4845 -1.60896,-1.489 l -0.77935,-0.003 -0.0401,2.07623 -0.0401,2.07623 h 0.71168 c 0.39142,0 0.88858,-0.13917 1.10481,-0.30957 z m 4.21072,0.5223 v -6.6013 h 2.51876 2.51877 v 1.06471 1.06472 h -1.60921 -1.60922 v 1.59711 1.59712 h 1.46928 1.46928 v 1.06471 1.06472 h -1.46928 -1.46928 v 1.81004 1.81006 h 1.60922 1.60921 v 1.06472 1.06476 h -2.51877 -2.51876 z m 14.97268,0 v -6.6013 h 0.9059 0.90592 l 0.0386,3.21305 0.0386,3.21307 1.53925,-3.20276 1.53925,-3.20271 0.95384,-0.009 0.95383,-0.009 -1.54854,3.07868 c -0.8517,1.69326 -1.54855,3.17709 -1.54855,3.29735 0,0.12036 0.69266,1.64631 1.53925,3.39114 0.84659,1.7448 1.53924,3.23158 1.53924,3.30394 0,0.0722 -0.42503,0.13026 -0.94453,0.12879 l -0.94454,-0.002 -1.53925,-3.32193 -1.53925,-3.32188 -0.0384,3.32455 -0.0386,3.32461 h -0.90601 -0.90599 v -6.60136 z m 7.28055,6.54813 c 0.002,-0.0297 0.68159,-2.97592 1.50961,-6.54813 l 1.50548,-6.49485 1.11412,-0.0584 1.11412,-0.0584 1.45744,6.34014 c 0.80159,3.48707 1.48642,6.46455 1.52184,6.61661 0.0497,0.21299 -0.1551,0.26202 -0.89308,0.21299 l -0.95749,-0.0634 -0.27081,-1.44367 -0.27081,-1.44367 -1.69224,0.0594 -1.69224,0.0593 -0.27137,1.43743 -0.27137,1.43739 h -0.95364 c -0.52453,0 -0.95181,-0.0248 -0.94956,-0.0536 z m 5.3133,-5.40415 c 0,-0.17336 -1.11378,-5.67821 -1.16451,-5.75538 -0.0213,-0.0347 -0.27877,1.15976 -0.57234,2.649 -0.29359,1.48924 -0.56338,2.82752 -0.59956,2.97392 -0.0494,0.20011 0.23268,0.26598 1.13532,0.26598 0.6606,0 1.20109,-0.0605 1.20109,-0.13373 z m 7.55631,-1.14398 v -6.6013 h 1.1834 1.1834 l 0.55578,2.71503 c 0.30568,1.49331 0.7566,3.72124 1.00206,4.95104 0.24544,1.22975 0.49755,2.32051 0.56026,2.42389 0.0627,0.10347 0.60375,-2.12458 1.20237,-4.951 l 1.08837,-5.13896 h 1.22992 1.22993 v 6.6013 6.60137 h -0.85993 -0.85992 l 0.0731,-5.23351 c 0.0402,-2.87844 0.0247,-5.15428 -0.0342,-5.0575 -0.0589,0.0967 -0.58936,2.45639 -1.17866,5.24343 l -1.07141,5.06739 -0.84742,-0.0628 -0.84742,-0.063 -1.02061,-5.07081 c -0.56133,-2.78897 -1.05398,-5.12162 -1.09478,-5.18368 -0.0408,-0.0619 -0.0375,2.24373 0.007,5.12405 l 0.0812,5.23694 h -0.79126 -0.79128 z m 11.61432,0 v -6.6013 h 2.51877 2.51878 v 1.06471 1.06472 h -1.60922 -1.60921 v 1.59711 1.59712 h 1.46928 1.46928 v 1.06471 1.06472 h -1.46928 -1.46928 v 1.81004 1.81006 h 1.60921 1.60922 v 1.06472 1.06476 h -2.51878 -2.51877 z m 8.3959,1.06477 v -5.53664 h -1.18942 -1.18942 v -1.06472 -1.06471 h 3.2884 3.28839 v 1.06471 1.06472 h -1.18942 -1.18942 v 5.53664 5.5366 h -0.90955 -0.90956 z m 5.272,2.82152 c 0.34832,-1.49331 1.02867,-4.43993 1.51186,-6.54812 l 0.87854,-3.83302 1.11231,-0.0614 1.11232,-0.0614 1.49334,6.45128 c 0.82133,3.54818 1.49335,6.52241 1.49335,6.60934 0,0.0872 -0.40747,0.158 -0.90554,0.158 h -0.90551 l -0.29753,-1.49062 -0.29752,-1.49064 h -1.65748 -1.65748 l -0.31548,1.49064 -0.31548,1.49062 h -0.94151 -0.94151 z m 4.66315,-2.84499 c 0,-0.19862 -0.83536,-4.49744 -1.07133,-5.51317 -0.0669,-0.28827 -1.15754,4.84668 -1.16461,5.48339 -0.002,0.19119 0.31264,0.26598 1.11649,0.26598 0.7271,0 1.11945,-0.0827 1.11945,-0.23626 z m 22.34366,2.84499 c 0.34832,-1.49331 1.02866,-4.43993 1.51186,-6.54812 l 0.87855,-3.83302 1.11229,-0.0614 1.11233,-0.0614 1.49333,6.45128 c 0.82134,3.54818 1.49335,6.52241 1.49335,6.60934 0,0.0872 -0.40747,0.158 -0.90553,0.158 h -0.90552 l -0.29752,-1.49062 -0.29753,-1.49064 h -1.65748 -1.65749 l -0.31547,1.49064 -0.31546,1.49062 h -0.94152 -0.94152 z m 4.66316,-2.84499 c 0,-0.19862 -0.83537,-4.49744 -1.07135,-5.51317 -0.0669,-0.28827 -1.15755,4.84668 -1.16461,5.48339 -0.002,0.19119 0.31264,0.26598 1.1165,0.26598 0.7271,0 1.11946,-0.0827 1.11946,-0.23626 z M 44.262404,681.78378 c -0.174288,-0.10693 -0.37892,-0.4428 -0.454766,-0.74647 -0.08822,-0.35316 -0.137903,-11.43952 -0.137903,-30.77647 v -30.22451 h 0.909555 c 0.850919,0 0.909557,0.0297 0.909557,0.48095 0,0.34325 0.91144,1.86691 3.184561,5.32366 1.751502,2.66357 3.247542,4.84282 3.324515,4.84282 0.07698,0 1.571986,-2.18084 3.322258,-4.84623 2.256587,-3.4365 3.18231,-4.98513 3.18231,-5.32367 0,-0.44578 0.06056,-0.47748 0.909555,-0.47748 H 60.3216 v 8.51786 8.51785 h 3.490364 c 3.448198,0 3.492985,0.005 3.708191,0.47351 0.176747,0.38387 0.217824,1.16714 0.217824,4.15246 v 3.6792 h 1.889079 1.889077 v -23.95649 -23.95643 h 0.83959 c 0.707752,0 0.839591,0.0589 0.839591,0.37445 0,0.20604 1.496017,2.64945 3.324472,5.43015 l 3.324473,5.05585 3.252316,-4.95267 c 2.308462,-3.5154 3.252314,-5.09127 3.252314,-5.43021 0,-0.44132 0.06306,-0.47748 0.839589,-0.47748 h 0.839591 v 11.66048 11.66054 l 3.288394,5.00081 3.288395,5.00088 3.288393,-5.00088 c 1.808623,-2.75044 3.288397,-5.16928 3.288397,-5.37518 0,-0.3155 0.13182,-0.37445 0.83959,-0.37445 h 0.83958 v 30.51707 c 0,26.01955 -0.0293,30.57806 -0.1986,30.93047 -0.19539,0.40665 -0.66866,0.41408 -29.14078,0.45371 -17.211657,0.0248 -29.070589,-0.0396 -29.259036,-0.15404 z m 10.601862,-5.42312 v -2.87482 h -4.68771 -4.687709 v 2.87482 2.87476 h 4.687709 4.68771 z m 13.853235,0 v -2.87482 h -6.087028 -6.087026 v 2.87482 2.87476 h 6.087026 6.087028 z m 13.013646,0 v -2.87482 H 76.13388 70.536613 v 2.87482 2.87476 h 5.597267 5.597267 z m 13.853234,0 v -2.87482 h -6.087028 -6.087028 v 2.87482 2.87476 h 6.087028 6.087028 z m 5.597269,-0.005 v -2.88033 l -1.924075,0.0593 -1.924049,0.0594 -0.03967,2.54296 c -0.0218,1.39859 -0.008,2.66832 0.03061,2.82151 0.05306,0.21052 0.533075,0.27886 1.963717,0.27886 l 1.893457,-5e-5 v -2.88076 z m -50.095539,-8.40554 v -2.98126 H 48.28748 45.488847 v 2.8393 c 0,1.56161 0.04198,2.90315 0.09328,2.98126 0.05131,0.0782 1.310709,0.14215 2.798633,0.14215 h 2.705351 z m 13.923202,0 v -2.87476 l -6.052056,-0.0555 -6.052034,-0.0555 v 2.84154 c 0,1.56285 0.04265,2.90646 0.09477,2.98577 0.05212,0.0791 2.775544,0.11936 6.052031,0.0886 l 5.957281,-0.0555 z m 12.943679,0 v -2.98126 h -5.597267 -5.597268 v 2.8393 c 0,1.56161 0.04198,2.90315 0.09328,2.98126 0.05131,0.0782 2.570091,0.14215 5.597265,0.14215 h 5.503987 z m 13.923201,0 v -2.87476 l -6.052056,-0.0555 -6.052033,-0.0555 v 2.84154 c 0,1.56285 0.04265,2.90646 0.09477,2.98577 0.05212,0.0791 2.775543,0.11936 6.052034,0.0886 l 5.957278,-0.0555 z m 9.235487,0 v -2.87476 l -3.743181,-0.0565 -3.743162,-0.0565 v 2.84277 c 0,1.56349 0.043,2.90819 0.09556,2.98819 0.05258,0.0798 1.736997,0.11986 3.743183,0.0886 l 3.64761,-0.057 z m -41.629668,-8.41137 v -2.8748 h -6.996583 -6.996582 v 2.8748 2.87478 h 6.996582 6.996583 z m 12.982728,-0.0536 0.03903,-2.82157 h -5.671288 -5.67129 v 2.73281 c 0,1.50307 0.04269,2.7978 0.09487,2.8772 0.05218,0.0792 2.586687,0.11936 5.63224,0.0886 l 5.537381,-0.0555 z m 13.884151,0.0536 v -2.8748 h -6.087027 -6.087028 v 2.8748 2.87478 h 6.087028 6.087027 z m 14.832759,0 v -2.8748 h -6.57679 -6.576789 v 2.8748 2.87478 h 6.576789 6.57679 z m -51.914647,-8.51847 v -2.87481 h -1.88908 -1.889076 v 2.87481 2.87476 h 1.889076 1.88908 z m 13.85323,0 v -2.87481 h -6.01706 -6.017062 v 2.87481 2.87476 h 6.017062 6.01706 z m 13.013647,0 v -2.87481 h -5.597267 -5.597267 v 2.87481 2.87476 h 5.597267 5.597267 z m 13.853234,0 v -2.87481 H 83.900086 77.81306 v 2.7328 c 0,1.50307 0.04198,2.79671 0.09328,2.87482 0.05131,0.0782 2.790478,0.14215 6.087027,0.14215 h 5.993746 z m 11.194536,0 v -2.87481 h -4.687715 -4.687709 v 2.87481 2.87476 h 4.687709 4.687715 z m -48.167411,-8.46466 -0.03905,-2.82151 -3.743183,-0.0565 -3.743161,-0.0565 v 2.87824 2.87828 h 3.78221 3.782212 z m 12.904628,-0.0529 v -2.87481 H 60.3216 54.724336 v 2.87481 2.87477 h 5.597264 5.597267 z m 20.430024,2.50041 c 0,-0.20605 -1.479771,-2.62474 -3.288393,-5.37522 l -3.288394,-5.00082 -3.288395,5.00082 c -1.80862,2.75048 -3.288393,5.16932 -3.288393,5.37522 0,0.35167 0.395085,0.37446 6.576788,0.37446 6.1817,0 6.576787,-0.0248 6.576787,-0.37446 z m 14.832759,0 c 0,-0.20605 -1.479774,-2.62474 -3.288397,-5.37522 l -3.288393,-5.00082 -3.288395,5.00082 c -1.808621,2.75048 -3.288394,5.16932 -3.288394,5.37522 0,0.35167 0.395086,0.37446 6.576789,0.37446 6.1817,0 6.57679,-0.0248 6.57679,-0.37446 z M 86.348891,632.65548 v -8.03662 l -2.658722,4.04181 -2.65872,4.04182 2.622356,3.9948 c 1.442299,2.19719 2.638725,3.99485 2.65872,3.99485 0.02008,0 0.03637,-3.61649 0.03637,-8.03666 z m 14.759409,-7.69104 c -0.0423,-0.0644 -1.239471,1.65043 -2.660484,3.81055 l -2.583654,3.92744 2.623769,3.99703 2.623749,3.99709 0.0367,-7.80758 c 0.0203,-4.29417 0.002,-7.86024 -0.0401,-7.92453 z m -25.147911,11.62636 2.552328,-3.88837 -2.658699,-4.04176 -2.658702,-4.04181 v 7.93017 c 0,4.36158 0.04786,7.93013 0.106371,7.93013 0.05849,0 1.254918,-1.74977 2.658702,-3.88836 z m 14.832756,0 2.55233,-3.88837 -2.658702,-4.04176 -2.658702,-4.04181 v 7.93017 c 0,4.36158 0.04786,7.93013 0.106372,7.93013 0.05849,0 1.254921,-1.74977 2.658702,-3.88836 z m -41.419198,-1.70431 1.4313,-2.1856 -2.658212,-4.041 -2.658188,-4.04103 v 6.22662 6.22656 h 1.226912 1.226891 z m 4.091005,2.03314 c 0,-0.23675 -1.301406,-2.19 -1.459225,-2.19 -0.16589,0 -1.479341,1.9308 -1.479341,2.1747 0,0.0922 0.661181,0.1679 1.469283,0.1679 0.8081,0 1.469283,-0.0684 1.469283,-0.15255 z m 5.037539,-6.07411 v -6.22655 l -2.588736,3.93521 c -1.4238,2.16435 -2.588736,4.03028 -2.588736,4.14647 0,0.1164 0.612769,1.14733 1.361702,2.29134 l 1.36172,2.08005 h 1.227013 1.227037 z m 24.384291,-4.79527 3.042336,-4.63334 -3.078496,-4.68125 -3.078518,-4.6812 -3.078517,4.6812 -3.078496,4.68125 3.042335,4.63334 c 1.67328,2.54836 3.074889,4.63341 3.114678,4.63341 0.03979,0 1.441398,-2.08505 3.114678,-4.63341 z m 3.462109,-15.96708 v -8.0366 l -2.658722,4.04181 -2.65872,4.04181 2.622356,3.9948 c 1.442299,2.19714 2.638725,3.9948 2.65872,3.9948 0.02008,0 0.03637,-3.61648 0.03637,-8.03662 z m -10.388502,3.93533 2.552328,-3.88836 -2.658699,-4.04181 -2.658702,-4.04176 v 7.93013 c 0,4.36162 0.04786,7.93016 0.106371,7.93016 0.05849,0 1.254918,-1.74978 2.658702,-3.88836 z m 52.228071,60.63855 v -2.44885 h 97.6723 97.67228 v 2.44885 2.44891 h -97.67228 -97.6723 z m 63.54478,-20.65209 c -1.44643,-0.49886 -2.13599,-0.90937 -3.45655,-2.0577 -1.67959,-1.46051 -2.57632,-2.48279 -2.57632,-2.93707 0,-0.20705 0.34884,-1.51649 0.77524,-2.90989 1.05391,-3.44406 1.08376,-3.52831 1.29333,-3.6507 0.10263,-0.06 0.67051,0.61299 1.28385,1.52127 0.81714,1.21009 1.36388,1.81358 2.12712,2.34772 2.04518,1.43134 2.87827,1.50488 3.53761,0.31253 1.05685,-1.91134 0.0156,-3.57473 -4.3984,-7.02663 -0.85424,-0.66802 -1.72181,-1.5311 -2.07457,-2.06374 -1.36652,-2.06346 -1.97587,-5.85573 -1.28824,-8.0174 0.73823,-2.3207 2.42001,-4.18505 4.31322,-4.78145 1.7049,-0.53706 4.06421,-0.19465 5.55009,0.80562 0.83068,0.55915 2.31419,2.71087 2.31419,3.3565 0,0.3601 -0.36698,1.09612 -1.20938,2.42596 -0.66515,1.05001 -1.27065,1.90913 -1.34557,1.90913 -0.0749,0 -0.42802,-0.32394 -0.78466,-0.71944 -1.49356,-1.65701 -2.8584,-2.37234 -3.51153,-1.84042 -0.37846,0.30808 -0.57153,1.33609 -0.41404,2.20417 0.15407,0.84916 0.32987,1.04 3.27712,3.55804 1.69965,1.45215 2.30505,2.10277 3.1821,3.42005 1.38104,2.0742 1.63842,2.91004 1.64247,5.33337 0.007,4.30874 -1.25854,7.10118 -3.85634,8.5078 -1.07921,0.58436 -3.14891,0.7272 -4.38074,0.30263 z m -62.81045,-0.25162 c -0.64295,-0.20654 -0.64595,-0.27241 -0.65541,-14.38451 -0.008,-12.55769 0.006,-13.37746 0.24144,-13.73503 0.23133,-0.35116 0.62031,-0.3789 5.10751,-0.35909 4.51755,0.0198 4.93536,0.0536 5.97656,0.48242 1.84105,0.75832 3.09053,2.39893 4.05185,5.32021 0.76551,2.32621 0.76717,5.20621 0.005,7.8305 -0.51589,1.77524 -1.92914,3.8006 -3.43117,4.91731 -1.76849,1.31484 -2.98876,1.76443 -4.78881,1.76443 h -1.51054 l -0.15191,0.58561 c -0.0992,0.38239 -0.12297,1.66231 -0.0685,3.69004 0.062,2.30561 0.0389,3.19058 -0.0895,3.43927 -0.13861,0.26846 -0.58917,0.35612 -2.27187,0.44231 -1.15445,0.0589 -2.2408,0.0619 -2.41413,0.005 z m 7.01716,-15.41134 c 1.14408,-0.25161 2.26383,-1.11087 2.62622,-2.01516 0.30712,-0.76644 0.33819,-2.38717 0.0645,-3.36085 -0.4531,-1.61153 -1.52829,-2.49114 -3.24588,-2.65549 -1.83154,-0.17534 -1.78124,-0.29224 -1.71677,3.98643 0.0389,2.58679 0.10598,3.6681 0.24286,3.91912 0.21677,0.39724 0.66764,0.42547 2.02915,0.12581 z M 272.458,653.56365 c -2.01883,-0.65985 -4.42234,-3.13902 -5.62756,-5.80486 -0.58733,-1.29904 -1.17725,-4.0842 -1.29385,-6.10843 -0.25497,-4.42686 0.96589,-10.1585 2.73833,-12.85575 1.01418,-1.54338 3.05981,-3.11445 4.88273,-3.75003 1.16422,-0.40614 3.35475,-0.41258 4.36244,-0.0148 0.84987,0.33681 3.1558,1.73263 3.43873,2.08149 0.0962,0.11837 0.17495,0.34076 0.17495,0.49382 0,0.15305 -0.6266,1.42192 -1.39239,2.82017 l -1.39241,2.54227 -1.931,-0.0248 c -1.68962,-0.0198 -2.01055,0.0297 -2.56776,0.42349 -0.93102,0.65554 -1.60894,1.65581 -2.05127,3.02651 -0.34798,1.07834 -0.38781,1.41828 -0.36633,3.12639 0.0394,3.13233 0.59047,5.06141 1.67635,5.86811 0.86085,0.63954 2.72005,0.79606 3.68173,0.31007 0.70038,-0.35415 1.56919,-1.43139 2.27769,-2.8245 0.13391,-0.2635 0.33163,-0.47896 0.43931,-0.47896 0.25131,0 3.43647,3.39746 3.63566,3.87797 0.51865,1.25123 -3.71262,6.29936 -6.06281,7.23321 -1.12225,0.44578 -3.34813,0.47351 -4.62254,0.057 z m 20.87522,0.10651 c -2.77799,-0.75287 -5.13396,-3.97885 -5.76278,-7.89084 -0.0883,-0.54939 -0.18554,-4.9138 -0.23594,-10.5912 -0.0724,-8.14782 -0.0551,-9.68629 0.11015,-9.84554 0.23592,-0.22734 4.32516,-0.25508 4.55661,-0.0297 0.11957,0.1159 0.15667,2.24672 0.13994,8.03547 -0.0223,7.69718 -0.0156,7.90476 0.28918,9.04912 0.63749,2.39303 1.6612,3.6201 3.0201,3.6201 1.03708,0 1.57752,-0.58758 2.16153,-2.35013 0.25082,-0.75708 0.51553,-1.86915 0.58822,-2.4714 0.0734,-0.60773 0.11002,-4.42883 0.0824,-8.58867 l -0.0496,-7.49381 2.35364,0.0709 c 1.29455,0.0396 2.40059,0.14266 2.45789,0.22983 0.0573,0.0876 0.16598,1.7624 0.24142,3.72204 0.18298,4.75277 -0.0494,12.22929 -0.45497,14.64525 -0.83306,4.9611 -2.89094,8.52553 -5.52483,9.56959 -1.05057,0.41655 -3.02987,0.57609 -3.97293,0.32045 z m -139.84529,-0.19515 c -4.17932,-0.0867 -5.457,-0.17584 -5.59726,-0.3898 -0.23755,-0.36209 -0.28606,-27.45039 -0.0497,-27.68527 0.0811,-0.0807 0.99777,-0.17732 2.03677,-0.21497 1.50788,-0.0545 1.94557,-0.004 2.16894,0.24915 0.2698,0.3061 0.28419,0.6763 0.39983,10.28992 0.0913,7.58934 0.16265,10.04106 0.29854,10.25949 0.1353,0.21743 0.95378,0.31452 3.37833,0.40021 1.75986,0.0624 3.27243,0.20059 3.36123,0.30759 0.095,0.11442 0.1991,1.22023 0.25289,2.68743 0.0503,1.37117 0.12258,2.7447 0.16067,3.05229 0.084,0.67808 -0.25576,1.27081 -0.68998,1.20359 -0.16767,-0.0247 -2.74184,-0.098 -5.72038,-0.15949 z m 22.77589,0.0148 c -0.0427,-0.10498 -0.14362,-0.91314 -0.22427,-1.79548 -0.0807,-0.88238 -0.22524,-2.01813 -0.32132,-2.52389 l -0.17468,-0.91958 -0.95933,-0.14513 c -0.52764,-0.0798 -1.68747,-0.0798 -2.57741,0 l -1.61806,0.14513 -0.17538,0.74534 c -0.0964,0.4101 -0.33885,1.58379 -0.53865,2.60859 l -0.36329,1.86328 h -2.65462 c -2.37348,0 -2.66433,-0.0396 -2.74627,-0.36355 -0.053,-0.21051 0.26997,-1.98267 0.76646,-4.20571 0.94528,-4.23254 2.43455,-11.32534 3.89193,-18.53554 0.52082,-2.57663 1.00691,-4.80458 1.08022,-4.95099 0.19222,-0.38387 7.41853,-0.38387 7.62261,0 0.0778,0.14661 0.30833,1.41609 0.51225,2.82152 0.20391,1.40543 1.16255,7.5634 2.13032,13.6843 1.42912,9.03892 1.72711,11.18845 1.58674,11.44586 -0.14121,0.25905 -0.62932,0.31699 -2.66623,0.31699 -1.37135,0 -2.52832,-0.0862 -2.57102,-0.19118 z M 174.6945,642.6188 c 0.19398,-0.29521 -0.91859,-7.34076 -1.17033,-7.4114 -0.15296,-0.0445 -0.42335,0.89934 -1.02527,3.57276 -0.44964,1.99704 -0.77868,3.78505 -0.7312,3.97331 0.0747,0.29619 0.26924,0.32295 1.44537,0.19713 0.74747,-0.0798 1.41412,-0.22933 1.48143,-0.33185 z m 29.53474,10.92514 -0.43192,-0.0976 -0.0926,-13.87371 c -0.0637,-9.54576 -0.0469,-13.94325 0.0537,-14.09679 0.22638,-0.34523 4.73759,-0.40467 5.15917,-0.0678 0.2298,0.18376 0.95203,1.98019 2.24894,5.59415 1.05078,2.92802 2.41111,6.71221 3.02298,8.40938 0.61187,1.69713 1.21189,3.11485 1.33334,3.15041 0.1501,0.0445 0.48192,-0.60345 1.03581,-2.02096 0.4482,-1.14714 1.4234,-3.57102 2.16708,-5.38637 0.74366,-1.8154 1.80836,-4.59432 2.36598,-6.17544 0.55764,-1.58112 1.14562,-3.09037 1.30662,-3.35392 0.2835,-0.46411 0.37533,-0.47898 2.92209,-0.47898 2.36259,0 2.64224,0.0396 2.75617,0.37249 0.0703,0.20653 0.15043,6.53879 0.17986,14.21417 l 0.053,13.84153 -2.23891,0.0609 c -1.2314,0.0347 -2.3726,0.009 -2.53599,-0.0505 -0.29347,-0.10997 -0.29778,-0.19368 -0.35744,-6.92936 -0.0385,-4.34231 -0.11359,-6.89894 -0.20687,-7.04094 -0.18687,-0.28431 -0.16138,-0.34473 -2.93307,6.93267 -1.24903,3.27937 -2.37451,6.18074 -2.50111,6.44756 -0.22283,0.46955 -0.29138,0.48293 -2.14479,0.42597 l -1.91459,-0.0589 -2.16894,-6.59345 c -1.19291,-3.62642 -2.24764,-6.62893 -2.34385,-6.67232 -0.21601,-0.0976 -0.21521,0.12679 0.0267,7.40975 0.10314,3.10369 0.13647,5.72645 0.0741,5.82832 -0.12174,0.19862 -4.11797,0.37248 -4.83563,0.21002 z m 41.44046,-0.55505 c -0.23002,-2.15046 -0.36719,-3.25125 -0.49538,-3.97573 l -0.14359,-0.81161 -0.99483,-0.10847 c -1.40573,-0.15306 -4.01567,0.0644 -4.1665,0.3477 -0.0692,0.12978 -0.31855,1.22029 -0.55401,2.42325 -0.23547,1.203 -0.46623,2.28104 -0.5128,2.39565 -0.13763,0.33879 -5.17669,0.27192 -5.36386,-0.0713 -0.11391,-0.20901 0.0749,-1.30062 0.74569,-4.31214 0.82914,-3.72227 2.28736,-10.66688 4.17788,-19.89694 l 0.76328,-3.72659 3.79447,-0.0565 3.79447,-0.0565 0.13515,0.48243 c 0.0744,0.26549 0.38974,2.20744 0.70085,4.31561 0.31114,2.10812 1.24883,8.14518 2.08382,13.41561 1.06454,6.71953 1.4802,9.69391 1.39121,9.95523 -0.11387,0.33433 -0.39122,0.37247 -2.70434,0.37247 h -2.57749 z m -1.53103,-10.43532 c 0.15499,-0.24865 0.0102,-1.41768 -0.85624,-6.91979 -0.17473,-1.10934 -0.46924,-0.4017 -1.24075,2.98125 -0.79442,3.4835 -0.87584,3.99594 -0.6835,4.3013 0.16167,0.25657 2.59186,-0.0605 2.78049,-0.36257 z m 68.93274,10.78348 c -0.0797,-0.23378 -0.16843,-4.44415 -0.21274,-10.09045 -0.0418,-5.32896 -0.1181,-9.85053 -0.16963,-10.0479 -0.0815,-0.31255 -0.39651,-0.36752 -2.45436,-0.42597 -1.51281,-0.0447 -2.41742,-0.15355 -2.51856,-0.30759 -0.21571,-0.32888 -0.37052,-6.77818 -0.16728,-6.96932 0.26216,-0.24667 8.10661,-0.41556 11.55219,-0.24914 4.29091,0.20753 3.99436,-0.0976 4.04524,4.15851 l 0.037,3.08774 -2.52984,-0.0803 c -1.74761,-0.0555 -2.6237,-0.003 -2.8336,0.16692 l -0.3038,0.24765 v 10.08138 c 0,7.8166 -0.0394,10.13112 -0.17529,10.30279 -0.0964,0.12185 -1.06565,0.29025 -2.1539,0.37446 -1.85294,0.14314 -1.98734,0.12729 -2.1154,-0.24865 z M 128.18846,594.90864 v -2.55534 h 97.6723 97.67228 v 2.55534 2.5554 h -97.67228 -97.6723 z"
       id="path1211"
       inkscape:connector-curvature="0" />
    <path
       style="fill:#000000;stroke-width:0.20210332"
       id="path1051"
       d=""
       inkscape:connector-curvature="0" />
  </g>
</svg>
